<svg id="visual" viewBox="0 0 1440 913" width="1440" height="913" xmlns="http://www.w3.org/2000/svg" xmlns:xlink="http://www.w3.org/1999/xlink" version="1.1"><path d="M0 47L160 165L320 138L480 184L640 74L800 138L960 83L1120 56L1280 120L1440 65L1440 0L1280 0L1120 0L960 0L800 0L640 0L480 0L320 0L160 0L0 0Z" fill="#009473"></path><path d="M0 238L160 321L320 275L480 311L640 238L800 330L960 330L1120 248L1280 339L1440 330L1440 63L1280 118L1120 54L960 81L800 136L640 72L480 182L320 136L160 163L0 45Z" fill="#007274"></path><path d="M0 394L160 448L320 330L480 348L640 339L800 476L960 540L1120 394L1280 503L1440 458L1440 328L1280 337L1120 246L960 328L800 328L640 236L480 309L320 273L160 319L0 236Z" fill="#005060"></path><path d="M0 759L160 722L320 640L480 667L640 585L800 777L960 786L1120 604L1280 741L1440 549L1440 456L1280 501L1120 392L960 538L800 474L640 337L480 346L320 328L160 446L0 392Z" fill="#022f42"></path><path d="M0 914L160 914L320 914L480 914L640 914L800 914L960 914L1120 914L1280 914L1440 914L1440 547L1280 739L1120 602L960 784L800 775L640 583L480 665L320 638L160 720L0 757Z" fill="#001122"></path></svg>