<svg id="visual" viewBox="0 0 1440 913" width="1440" height="913" xmlns="http://www.w3.org/2000/svg" xmlns:xlink="http://www.w3.org/1999/xlink" version="1.1"><path d="M0 174L160 202L320 138L480 211L640 174L800 101L960 248L1120 165L1280 165L1440 56L1440 0L1280 0L1120 0L960 0L800 0L640 0L480 0L320 0L160 0L0 0Z" fill="#009473"></path><path d="M0 284L160 439L320 512L480 384L640 311L800 330L960 430L1120 594L1280 558L1440 430L1440 54L1280 163L1120 163L960 246L800 99L640 172L480 209L320 136L160 200L0 172Z" fill="#007274"></path><path d="M0 384L160 540L320 549L480 576L640 476L800 494L960 658L1120 686L1280 631L1440 558L1440 428L1280 556L1120 592L960 428L800 328L640 309L480 382L320 510L160 437L0 282Z" fill="#005060"></path><path d="M0 512L160 594L320 722L480 741L640 658L800 658L960 713L1120 713L1280 768L1440 695L1440 556L1280 629L1120 684L960 656L800 492L640 474L480 574L320 547L160 538L0 382Z" fill="#022f42"></path><path d="M0 914L160 914L320 914L480 914L640 914L800 914L960 914L1120 914L1280 914L1440 914L1440 693L1280 766L1120 711L960 711L800 656L640 656L480 739L320 720L160 592L0 510Z" fill="#001122"></path></svg>